#define arch_16_width 16
#define arch_16_height 16
static unsigned char arch_16_bits[] = {
   0x00, 0x00, 0x80, 0x01, 0x80, 0x01, 0xc0, 0x03, 0xc0, 0x03, 0xe0, 0x07,
   0xe0, 0x07, 0xf0, 0x0f, 0xf0, 0x0f, 0xf0, 0x0f, 0x78, 0x1e, 0x78, 0x1e,
   0x3c, 0x3c, 0x0e, 0x70, 0x00, 0x00, 0x00, 0x00 };
