#define bat_16_width 16
#define bat_16_height 16
static unsigned char bat_16_bits[] = {
   0x00, 0x00, 0xc0, 0x03, 0xf0, 0x0f, 0x10, 0x08, 0x10, 0x08, 0x10, 0x08,
   0x10, 0x08, 0x10, 0x08, 0x10, 0x08, 0x10, 0x08, 0xf0, 0x0f, 0x10, 0x08,
   0x10, 0x08, 0x10, 0x08, 0xf0, 0x0f, 0x00, 0x00 };
