#define cpu_16_width 16
#define cpu_16_height 16
static unsigned char cpu_16_bits[] = {
   0x00, 0x00, 0xfe, 0x7f, 0x02, 0x70, 0x02, 0x60, 0xf2, 0x43, 0xf2, 0x47,
   0xf2, 0x4f, 0xf2, 0x4f, 0xf2, 0x4f, 0xf2, 0x4f, 0xf2, 0x4f, 0xf2, 0x4f,
   0x02, 0x40, 0x02, 0x40, 0xfe, 0x7f, 0x00, 0x00 };
