#define disk_16_width 16
#define disk_16_height 16
static unsigned char disk_16_bits[] = {
   0x00, 0x00, 0x00, 0x00, 0x00, 0x00, 0xf0, 0x0f, 0x0c, 0x30, 0x02, 0x40,
   0x02, 0x40, 0x0e, 0x70, 0xf2, 0x4f, 0x02, 0x40, 0x02, 0x40, 0x0c, 0x30,
   0xf0, 0x0f, 0x00, 0x00, 0x00, 0x00, 0x00, 0x00 };
