#define eth_16_width 16
#define eth_16_height 16
static unsigned char eth_16_bits[] = {
   0x00, 0x00, 0xfe, 0x7f, 0x02, 0x40, 0x02, 0x40, 0x02, 0x40, 0x02, 0x40,
   0x02, 0x40, 0x02, 0x40, 0xfe, 0x7f, 0x80, 0x01, 0x80, 0x01, 0x80, 0x01,
   0xff, 0xff, 0xff, 0xff, 0x00, 0x00, 0x00, 0x00 };
