#define fan_16_width 16
#define fan_16_height 16
static unsigned char fan_16_bits[] = {
   0x00, 0x00, 0xc0, 0x01, 0xe0, 0x00, 0xf0, 0x00, 0xf0, 0x18, 0xe0, 0x3c,
   0xc0, 0x7e, 0x82, 0x7f, 0xfe, 0x41, 0x7e, 0x03, 0x3c, 0x07, 0x18, 0x0f,
   0x00, 0x0f, 0x00, 0x07, 0x80, 0x03, 0x00, 0x00 };
