#define ram_16_width 16
#define ram_16_height 16
static unsigned char ram_16_bits[] = {
   0xaa, 0x2a, 0xaa, 0x2a, 0xaa, 0x2a, 0x00, 0x00, 0xfe, 0x7f, 0xfe, 0x5f,
   0xfe, 0x7f, 0xfe, 0x7f, 0xfe, 0x7f, 0xfe, 0x7f, 0xfe, 0x7f, 0xfe, 0x7f,
   0x00, 0x00, 0xaa, 0x2a, 0xaa, 0x2a, 0xaa, 0x2a };
