#define wifi_16_width 16
#define wifi_16_height 16
static unsigned char wifi_16_bits[] = {
   0x00, 0x00, 0x00, 0x00, 0x00, 0x00, 0xe0, 0x07, 0x18, 0x18, 0xc4, 0x23,
   0x32, 0x4c, 0x08, 0x10, 0xe4, 0x27, 0x10, 0x08, 0xc0, 0x03, 0x20, 0x04,
   0x80, 0x01, 0x80, 0x01, 0x00, 0x00, 0x00, 0x00 };
